<mxfile host="65bd71144e">
    <diagram id="4hprDdHnwxofryBb9SXi" name="Page-1">
        <mxGraphModel dx="473" dy="358" grid="1" gridSize="10" guides="1" tooltips="1" connect="1" arrows="1" fold="1" page="1" pageScale="1" pageWidth="850" pageHeight="1100" math="0" shadow="0">
            <root>
                <mxCell id="0"/>
                <mxCell id="1" parent="0"/>
                <mxCell id="2" value="Git Repositry" style="shape=cylinder3;whiteSpace=wrap;html=1;boundedLbl=1;backgroundOutline=1;size=15;" parent="1" vertex="1">
                    <mxGeometry x="500" y="120" width="110" height="150" as="geometry"/>
                </mxCell>
                <mxCell id="15" style="edgeStyle=none;html=1;entryX=0;entryY=0.5;entryDx=0;entryDy=0;" parent="1" source="5" target="10" edge="1">
                    <mxGeometry relative="1" as="geometry"/>
                </mxCell>
                <mxCell id="5" value="Project Directory" style="swimlane;" parent="1" vertex="1">
                    <mxGeometry x="20" y="120" width="110" height="150" as="geometry"/>
                </mxCell>
                <mxCell id="6" value="" style="group" parent="5" vertex="1" connectable="0">
                    <mxGeometry x="50" y="30" width="50" height="110" as="geometry"/>
                </mxCell>
                <mxCell id="3" value="file 1.txt" style="shape=note;whiteSpace=wrap;html=1;backgroundOutline=1;darkOpacity=0.05;size=15;" parent="6" vertex="1">
                    <mxGeometry width="50" height="50" as="geometry"/>
                </mxCell>
                <mxCell id="4" value="file 2.txt" style="shape=note;whiteSpace=wrap;html=1;backgroundOutline=1;darkOpacity=0.05;size=15;" parent="6" vertex="1">
                    <mxGeometry y="60" width="50" height="50" as="geometry"/>
                </mxCell>
                <mxCell id="14" style="edgeStyle=none;html=1;entryX=0;entryY=0.5;entryDx=0;entryDy=0;entryPerimeter=0;" parent="1" source="10" target="2" edge="1">
                    <mxGeometry relative="1" as="geometry"/>
                </mxCell>
                <mxCell id="10" value="Staging(Index) Area" style="swimlane;" parent="1" vertex="1">
                    <mxGeometry x="240" y="120" width="130" height="150" as="geometry"/>
                </mxCell>
                <mxCell id="11" value="" style="group" parent="10" vertex="1" connectable="0">
                    <mxGeometry x="50" y="30" width="50" height="110" as="geometry"/>
                </mxCell>
                <mxCell id="12" value="file 1.txt" style="shape=note;whiteSpace=wrap;html=1;backgroundOutline=1;darkOpacity=0.05;size=15;" parent="11" vertex="1">
                    <mxGeometry width="50" height="50" as="geometry"/>
                </mxCell>
                <mxCell id="13" value="file 2.txt" style="shape=note;whiteSpace=wrap;html=1;backgroundOutline=1;darkOpacity=0.05;size=15;" parent="11" vertex="1">
                    <mxGeometry y="60" width="50" height="50" as="geometry"/>
                </mxCell>
                <mxCell id="16" value="snapshot of your current project" style="rounded=1;whiteSpace=wrap;html=1;" vertex="1" parent="1">
                    <mxGeometry x="140" y="140" width="80" height="50" as="geometry"/>
                </mxCell>
                <mxCell id="17" value="commit" style="rounded=1;whiteSpace=wrap;html=1;" vertex="1" parent="1">
                    <mxGeometry x="410" y="140" width="80" height="50" as="geometry"/>
                </mxCell>
            </root>
        </mxGraphModel>
    </diagram>
</mxfile>